<?xml version="1.0" encoding="UTF-8"?><svg width="1700px" height="659px" viewBox="0 0 1700 659" version="1.1" xmlns="http://www.w3.org/2000/svg" xmlns:xlink="http://www.w3.org/1999/xlink"><title>solady</title><path d="M1700 21.9Q1700 26.4 1700 31L1700 31.1Q1700 31.6 1700 32 1700 34.2 1699.2 36.1 1695.1 40.2 1690.8 47.9 1687.3 54.3 1683.6 63.3 1676.6 80.7 1669.3 107.7L1664.9 123Q1663.8 126.9 1662.7 130.9 1663.7 126.9 1664.7 123 1664.4 124 1664.1 125.1 1663.3 128 1662.6 130.9L1661.9 133.7Q1661.5 135.3 1661 137.1 1655.2 161.1 1649.3 190.4 1645.7 204.9 1642.4 219.7 1641.8 222.2 1641.3 224.7 1641.2 225.4 1641 226 1641.7 222.8 1642.5 219.7 1642 222.6 1631 279 1620 335.4 1608.5 437.9 1596.9 540.5 1595.2 561.6 1593.5 582.8 1593.3 584.6 1593 586.3 1592.8 589 1592.5 591.8 1592.1 595.3 1591.9 596.7 1591.8 598.1 1591.7 598.3 1591.5 598.5 1591.2 599 1590.9 599.5 1590.4 600.2 1589.8 600.8 1589.5 601 1589.3 601.3 1589.2 601.3 1589.2 601.4 1583.6 609.4 1576.9 616.5 1566.3 627.7 1553 636.3 1550.2 638 1547 638 1543.8 638 1541.3 636.7L1541.2 636.6Q1541.1 636.6 1541 636.6 1533.6 632.7 1526.8 628.1 1524.7 626.6 1523.5 624.4 1522.2 622.1 1522 619.5 1520.9 597.8 1525.9 546.2 1530.8 494.6 1541.7 418.3 1552.6 342 1564.9 267.6 1544.6 257.6 1529.7 242.3 1503 215.1 1477.8 186.6 1480.1 195.1 1479.3 205.8L1479.3 205.8Q1479.3 205.8 1479.3 205.9 1477.3 229 1467 244.8 1431.1 300.4 1383.8 344.4 1337.2 387.6 1289.5 429.6 1289.3 429.6 1289.3 429.7 1273.9 443.2 1255.4 453.6 1252.8 455 1250 455 1247 455 1244.5 453.6 1231.5 446 1222 435.1 1221.8 434.9 1221.8 434.8 1219 431.9 1219 427 1219 425.1 1219.7 423.4L1219.7 423.4Q1237.4 372.9 1241 303.5L1241 303.4Q1241 303.3 1241 303 1241 302.8 1241 302.6L1241 276.1Q1241 275.8 1241 275.6 1241 275.5 1241 275.4 1241 275.2 1241 275 1241 274.6 1241 274.3 1239.8 218.8 1228.8 173.4 1223.5 177.4 1217.8 180.9 1166.8 212.2 1123.8 252.1 1145.8 310.8 1165.3 371.7 1170.7 388.6 1177.1 405.4 1186.3 429.7 1191.8 459.1 1192 460 1192 461 1192 465.3 1189.7 468.3 1173.5 490.9 1148.3 504.7 1145.3 506.2 1142.2 506 1138.8 505.7 1136.3 503.7 1109.5 482.9 1084.5 460.5 1041.2 421.9 992.6 388.5 973.1 409.6 952.5 429.7 942.9 439.1 935.6 450.6 917 480.4 889.6 500.9 886.6 503 883 503 879 503 876.2 501.1 863.5 492.9 857 478.6L857 478.6Q856 476.4 856 474.3 855.8 463.6 858.2 455.8L858.2 455.8Q876 396.4 895.2 338.6 888.3 347.4 881 355.8 871.6 366.6 860 374.6 808.1 410.1 769.4 458.5 748.4 484.6 721.6 504.8 718.7 507 715 507 710.8 507 707.8 504.8 707.8 504.8 707.8 504.7 707.7 504.7 707.6 504.6 698.4 497.9 690.3 489.9 687 486.6 687 482 687 480 687.5 478.2 690.5 467.1 692 455.2 665.2 487.6 614.8 495.9 613.9 496 613 496 612.5 496 612 496 605.5 496 599 496 598.5 496 597.9 495.9 558.4 491.9 531.6 475.7 531.5 475.6 531.4 475.5 478.3 443.6 453.9 383.3 453.1 383.6 452.1 383.9 411.4 391.6 373.8 401.9L373.7 401.9Q346.9 409.2 321.1 417.3 331.8 428.7 342.5 440.4 385.8 487.9 420.1 545 430.4 562.1 430 585.3 429.9 588.2 428.4 590.6L408.1 611.1Q398.2 619.6 392.7 622.8 387.2 626 384.8 626 382.3 626.1 380 625.3 344.5 611.4 310.4 596.5 253.2 571.4 193.5 553 191.3 552.4 189.2 551.7L185 550.4Q142.2 605.8 89 651.8 85 655.3 81.7 657 78.5 658.5 76.2 658.7 73.9 658.9 71.6 658.7 69.3 658.6 66.8 657.2 64.2 655.8 60.7 652.5 54 646 51.2 637 50.6 635.2 50.5 633.8 50.8 632.7 51.4 632.2 82 602.9 107.8 570.1 121.3 552.9 133.5 534.6 112.5 529 88.8 526.4 54.6 522.5 19.6 520 14 519.9 11.4 516.5 7 512 2.9 507.4 0 504.3 0 500 0 499.5 0 499 0 496.5 0 494 0 490.6 2 487.8 40.6 432.1 109.7 407.5 151.7 392.4 195.5 379.6 163.7 331.4 136.7 278.3 115.2 236.1 108.5 180.2 106 159.6 108.2 142.6 108.2 142.5 108.2 142.4 109 135.5 110.4 130.2 110.8 128.3 112 126.7 131.7 98.6 162.8 82.6 162.8 82.5 163 82.5 167.8 80 174 80 177.5 80 181 80 183.8 80 186.3 81.4 247.1 115 276.9 178.8 288.1 202.7 296.4 230.3 306.1 262.7 302.9 302.8 301.6 320.9 298.5 338.9 297.1 347.2 295.6 355.7 359.9 340.9 419.9 322.1 428.9 319.1 439.3 317.9 442.6 255.7 481.9 228.9 489.4 223.4 497.4 218.3L497.4 218.4Q522.6 201.4 555.4 213.2 555.5 213.2 555.6 213.2 569.8 218.4 580.9 227.1 623.6 186.9 669.3 149.7 689.9 132.9 711.5 117.2 714.5 115 718.3 115 722 115.1 724.9 117.5 734.2 124.8 741.6 134.3 741.8 134.4 742 134.6 745 137.1 745.9 141L745.9 141.1Q759.9 217.3 764 304.4 764.7 320.7 764 339.4L764 339.4Q764 344.8 764 350 764 350.5 764 351 764 368.4 764 385.8 801.2 350.2 841.8 318.1 849.9 311.7 858.8 306.1 840.4 295.3 823.4 283.1 817.4 278.9 814 271.6 813 269.3 813 266.8 813 264.3 814.2 262 826 239.1 846.6 224.8 848.9 222.3 852.3 221.4 892.9 210.9 925.1 192.6 925.1 192.5 925.2 192.5 935.6 186.6 946.3 181.2 965.9 130 982.1 75.7 982.3 74.1 983 72.6 983.9 70.5 985.6 69 1003.5 52.4 1021.3 35.7 1021.4 35.6 1021.5 35.5 1021.5 35.4 1021.6 35.3 1024.3 32 1030 32 1033.9 32 1037 34.5 1060 53.4 1069.7 86.4 1069.7 86.5 1069.8 86.6 1072.3 95.4 1075.4 104.2 1075.8 102.3 1077 100.7 1091 80.8 1110.4 66.2 1110.8 65.6 1111.3 65.2 1114.6 62 1119.1 62 1209.5 62.8 1280.3 82.5 1325.1 94.9 1366.5 110.8 1366.7 110.8 1366.8 110.8 1399 123.1 1430 136.4 1430.2 136.4 1430.3 136.6 1435.3 138.7 1439.8 141.3 1412.2 106.2 1387.8 68L1387.8 68Q1385.7 64.8 1386 61 1386.4 57.2 1389 54.5L1389 54.5Q1405.7 36.8 1422.2 18.9L1422.2 18.8Q1422.3 18.7 1422.4 18.6 1425.1 15 1431 15 1432 15 1433 15.2 1435 15.6 1436.9 16.7 1437.3 16.9 1437.7 17.2 1440.4 18.9 1463.5 32.6 1486.4 46.1 1513 55 1513 55 1513 55 1515.5 55.6 1517.7 56 1523.7 57 1527.8 56.3 1528 56.2 1528.3 56.3 1529 56.4 1529.7 56.6 1533.2 57.9 1536.3 59.7 1544.2 64.3 1548.8 72.3 1551.4 74.8 1551.9 78.5 1552.5 82.5 1550.3 86 1538.5 104 1523 118.3 1549.8 151.8 1581 181.3 1594.9 115.5 1617.7 58.3 1617.7 58.1 1617.8 58.1 1620.3 51.5 1622.5 44 1623.3 41 1625.6 38.9L1625.6 39Q1644.1 21.9 1662.8 5 1663.4 4 1664.3 3.3L1664.3 3.3Q1667.4 0 1672 0 1672.5 0 1673 0 1673.5 0 1674 0 1676.4 0 1678.7 1.1 1680.2 1.8 1681.8 2.6 1689.3 6.7 1695 12.8L1695 12.8Q1695.9 13.3 1696.8 14.2 1700 17.4 1700 21.9M1302.8 167.3Q1309.8 205.6 1311.5 249.7 1313.1 294.9 1306.5 336.5 1305.5 342.3 1304.8 347.9 1346.8 312.1 1382.9 270.1 1383 269.9 1383.1 269.9 1385 267.6 1387 265.4L1399.4 248.2Q1407.7 233.7 1407.7 225.8 1407.6 218 1406.3 216.1 1404.9 214.2 1403.2 212.8L1403.3 212.8Q1373.8 192.9 1345.1 181.2 1316.4 169.5 1302.8 167.3M1018 160.7 1017.6 160.8 1018 160.9Q1018 160.8 1018 160.7M1087.5 128.1Q1084.6 125.8 1082.3 123 1084 127.7 1085.5 132.4 1088.6 131.8 1091.7 131.2 1089.8 130.3 1088.3 128.8 1087.8 128.4 1087.5 128.1M1102.8 192.4Q1104.8 198.2 1107 203.8 1116 195.3 1125.2 186.9 1113.7 189.3 1102.8 192.4M1030.7 211.8Q1013.8 216.4 999.7 223.8 990.1 255.8 979.5 286.4 990.9 297.1 1004.5 305.4 1026.4 283.1 1046.3 258.9 1039.9 234.1 1030.7 211.8M1064.8 309.9Q1054.8 320.9 1044.3 331.4 1064.2 346.9 1084.3 362.3 1075.5 335.1 1064.8 309.9M683 205Q662.6 221.8 642.3 238.7 643.5 239.8 644.9 240.9 645 240.9 645 241.1 671.4 262.6 691.5 290.2 689.7 255.5 685.9 221.1 685 212.4 683 205M652.8 391.8Q642.4 345.3 615 315.4 613.9 320.7 612.5 325.6 607.6 338.5 600.5 349.7 593.3 361.2 583.9 371.1 581.2 374 573.3 379.8 565.4 385.5 549.3 389.6 556.9 397.4 565.7 403.9 583.2 416.8 607.5 421.8 635.1 427.3 653.5 419.4 656 406.7 652.8 391.9 652.8 391.9 652.8 391.8M924.3 255.1Q924.5 254.4 924.6 253.8 923.9 254.1 923.2 254.4 923.7 254.8 924.3 255.1M509.9 283.9Q508.9 310.6 514.9 329.9 515 329.9 515 330.1 519.6 344.9 526.5 357.8 527.9 355.7 529.8 354 537.2 347.3 542.5 338.8 542.5 338.7 542.5 338.6 548.7 327.9 545.5 312.4 540.1 286.4 517 277.9 514.4 277.3 511.5 277.9 510.2 281.2 509.9 283.9M182.1 181.8Q186.4 196.3 191.5 209.6 191.6 209.6 191.6 209.7 209.3 255.8 233.3 295 232.1 276.4 228.2 259.4 215.1 204.1 179.9 171.4 180.7 176.7 182.1 181.6 182.1 181.7 182.1 181.8M192.4 448.8Q167.7 454.9 143.8 462 160.8 465.9 178 469.7 185.3 459.4 192.4 448.8M298.8 510.4Q275.4 483.1 251.6 456.4 241.3 471.9 230.4 486.8 237.4 490.4 245.8 493.1 261.1 497.8 277.9 503.4 288.5 506.9 298.8 510.4M136.6 535.5Q136.6 535.5 136.7 535.5 136.1 535.3 135.5 535.2L136.6 535.5" fill="#fff"/><path d="M1673.1 11Q1683 14.6 1688.8 22.2 1689.1 22.5 1689.1 23 1690.3 32.7 1686.2 37.1 1680.8 44.9 1676 55.5 1671.1 66 1661.7 94.2 1652.3 122.3 1634.6 202.9 1599.4 391.9 1590.9 489.9 1582.4 587.8 1582.1 592.2L1581.9 593.3Q1581.3 594 1580.7 594.7 1568.1 610 1553.8 623.7 1552.3 625.1 1550.3 626.3 1549.3 626.8 1547.9 627 1544.3 625.8 1541.5 624.3 1538.5 622.5 1536 620.3 1534.3 618.7 1533.1 616.7 1533.1 616 1533 615.3 1533 614.9 1533 614.5 1538.2 529.9 1551.8 428.3L1551.9 427.9Q1559.8 369.2 1570.6 304.9L1573.2 289.1 1576.7 260.8Q1556.6 251.7 1541.9 237.2 1527.1 222.5 1512.6 207.5 1498.1 192.5 1484.9 176.2 1471.8 159.8 1458.3 143.8 1444.8 127.8 1431.6 111.6 1431.1 111 1430.6 110.4 1417.7 94 1405.7 76.3 1405.2 75.5 1404.5 74.7 1400.8 69.8 1397.5 64.7 1397.1 64 1397.1 63 1410.1 46.5 1425.5 32.5 1428.7 29.6 1429.9 27.8 1431.2 26 1431.8 26.3 1432.5 26.6 1433.7 27.1L1434.6 27.5Q1443 32.9 1450.9 37.5 1461.4 43.7 1470.9 48.6 1493.6 60.4 1510.3 64.7 1519 66.8 1526 67 1526 67 1526.1 67 1527.8 67.7 1529.4 68.5 1537 72.5 1540.9 80.1 1541.1 80.5 1541.1 81 1536 90.8 1527.7 97.7 1522.6 102 1517.8 106.7 1513 111.3 1508.1 116 1520.8 132.8 1534.4 148.6 1541.4 156.7 1548.8 164.3 1559.5 175.6 1570.5 186.6 1575.7 191.9 1581.3 196.8 1584.3 199.4 1587.1 202 1589.8 200.8 1590.4 197.1 1592.3 184.3 1595 172 1600.4 147.8 1606.7 124.2 1612.8 101.2 1620.8 79.8 1626.8 63.8 1633.3 48.1 1633.6 47.5 1634.1 47 1649.1 32.5 1664.4 18.3 1668.5 14.4 1673.1 11M1333.2 165.7Q1321.5 161.2 1309.4 157.4 1304.7 155.9 1300 154.4 1292.3 152.2 1289 152.3 1290.3 160.3 1291.2 165 1295.8 189.8 1298.8 216.1 1300.4 229.8 1300.3 245 1300.3 248.8 1300.5 252 1301.5 281.9 1300 310 1298.3 337.8 1292 361 1290.2 368.1 1289.2 372.6 1302.1 362.7 1311.9 354.5 1321.7 346.4 1333.5 336.1 1345.3 325.8 1360.5 311.4 1375.5 296.9 1388.7 280.7 1397.2 270.2 1405 259 1409.1 253.5 1412.2 248.2 1416.6 240.6 1418.5 233.5 1421.4 223 1418.8 213.9 1418.5 212.8 1417.9 211.8 1411.5 201.2 1386.9 188.4 1368.1 178.7 1338.5 167.7L1333.2 165.7M1453.2 165Q1463.6 173.7 1467.7 186.9 1470.6 196.2 1469.3 206.9L1467.2 217.5Q1467.2 217.6 1467.2 217.7 1466.8 218.9 1466.4 220.1L1462.9 229.5Q1460.9 234 1458.5 238.3 1458.2 238.9 1457.8 239.6L1456.5 241.8Q1446.5 258.7 1434.5 273.4 1421.2 289.6 1406.8 304.7 1392.4 319.8 1377.8 334.7 1370.3 342.3 1362.7 349.6 1347.5 363.9 1331.6 377.6 1315.7 391 1306.3 399.3 1296.8 407.6 1286.8 416.6 1276.7 425.7 1266.2 433.9 1255.7 442.2 1250.1 444 1249.6 444 1249.3 443.8 1237.6 436.5 1229.1 426 1235 409.4 1240.2 392.1 1241.1 389 1241.8 385.9 1247.5 361.9 1250.4 335.9 1252.7 315.6 1252.8 293 1253 262.6 1250.2 236 1247.5 209.2 1242.8 184.1 1241.7 178 1240.8 171.9 1239.4 161.7 1236.1 154 1224.5 163.3 1210.9 170.6 1210.1 171 1209.4 171.4 1192 183.4 1174.8 195.5 1157.3 207.8 1141.6 221.6 1126 235.3 1111.3 249.8L1111.2 249.8 1111 250.3 1180.6 454.1Q1181.1 457.8 1181.1 462 1173.1 470.5 1167.8 475.4 1162.5 480.3 1157.5 485.4 1152.4 490.4 1144.1 495 1140.5 494.1 1138.2 491.9 1122.7 478 1106.6 464.4 1102.7 461 1098.6 457.6 1082.5 444.1 1066.5 430.6 1051.1 417.5 1035.1 404.9 1031 401.7 1026.6 398.4 1013.1 388.1 998.8 378.4 998.8 378.4 998.8 378.4 998.7 378.4 998.6 378.3 997.4 377.5 996.3 376.8L994.7 375.7Q993.4 374.8 992.1 374L992 374Q992 374.1 992 374.1 991.9 374.1 991.9 374.2 991.8 374.2 991.7 374.3 990.4 375.2 989.5 376.3 975.5 391.9 960.5 406.5 945.6 421 931.5 436.4 924.3 444.2 919.8 454.3 917.3 459.7 913.5 463.4 898.6 478.1 883.1 492 873.9 486.7 868.7 477.2 866.3 472.8 867.7 465.1 871.6 444 878.3 425.1 879.5 421.9 880.5 418.8 888.1 396.5 895.7 374.2 903 352.4 911 330.9 912.1 327.7 912.3 325.4 912.4 324.3 912.2 323.4 905 319 898.6 315.1 898.3 315.1 898.1 315 898.2 316.1 898.2 317 898.2 320.6 896.5 322.4 894 324.9 891.5 327.4 876.5 341.9 863 357.9 862.6 358.5 862.4 359.1 861.2 362.1 858.8 363.6 853.1 367 847.5 370.6 832 380.4 818.4 392.4 802.6 406.1 788 420.9 773.4 435.8 759.6 451.6 756.1 455.5 752.6 459.5 738.9 475.3 724.5 490.4 720.8 494.2 715.1 496 714.6 496 714.3 495.8 704.9 489.7 698.1 481 703.4 458.8 705.3 433 705.9 424.8 704.1 419 700.6 426 697.5 429.9 694.3 433.7 689.2 440.4 684 446.9 670.5 460.1 656.9 473.3 634.9 480.4 633.1 481 631.4 481.7 629.5 482.5 627.5 483.1 618.2 485.9 604.9 485.3 591.6 484.6 579.1 481.6 566.5 478.6 559.4 475.5 552.2 472.5 544.9 468.9 537.6 465.4 525.4 457.4 519.8 453.6 514.6 449.6 497.9 436.6 486.6 418.7 486.5 418.6 486.4 418.5 476.6 404.8 468.7 388.5 468.6 388.4 468.6 388.2 462.3 376.4 461 372.4 459.6 368.4 458.1 365 458.1 365.5 457.9 365.8 454.1 369.4 450.1 373 427.1 376.6 406.3 382.5 394.9 385.8 383.1 388.9 359.9 395.3 336.3 401.6 330.6 403 324.9 404.1 311.9 406.8 301.1 411 310.2 421.4 319.2 431.9 332.8 447.8 346.6 463.4 360.5 479.1 373.1 496 385.8 512.9 397.6 530.4 409.6 548.1 417.9 569.1 419.1 572.2 419.4 574.8 419.8 577.4 419.8 578.9 419.8 580.3 419.8 581 419.7 581.8 419.6 582.4 419.6 582.9 419.4 583.6 419.2 584.2 418.7 584.6 406.1 596.5 394.4 609.3 390.8 613.2 385.1 615 382.8 615.3 381.1 614.9 380.6 614.8 380.4 614.7 379.9 614.5 379.4 614.4L379.4 614.3Q364.4 607.4 349.3 600.7 330.4 592.4 311.4 584.5 277.1 570.5 242.2 557.7 226.2 551.9 210.1 546.4 200.1 542.9 190.2 539.7L180.7 536.5Q123.8 611.4 79.1 645.9 77 647.5 74.2 648.4 72.5 648.6 69.2 645.1 65.9 641.6 63.3 637.9 62.1 636.3 61.9 634.6 61.9 633.8 62.7 633 82.7 613.6 102.4 591.1 127.9 562.1 152.8 528 152.2 527.8 151.6 527.8 141.7 525.1 131.6 522.9 91.3 513.9 49.3 511.5 38.8 510.9 28.1 510.8 24.6 510.4 21.1 510 20.6 510 20.4 509.8 20.4 509.8 20.4 509.8 16.1 505.5 13.6 502.5 12.1 500.5 11.8 500.1 10.8 498.4 11.1 495 11.8 494 12.4 493.1L26.6 475.3Q36.4 465.2 46.6 455.4 48.1 454 49.6 452.7 65.8 439.3 85 428.8 94.7 423.6 106 419.6 127.6 412 149.4 404.9 161.2 401.1 172.9 397.6 192.3 391.7 213.1 387 201.4 369.2 190.3 350.9 179.1 332.5 168.8 313.6 160.7 298.9 153 284.1 142.9 264.6 134.7 243.8 126.2 222.4 120.8 198.8 118 186.1 117.9 168.7 117.7 151.4 121.1 133 134.6 117 149.4 102.3 151.4 100.3 153.4 98.3 160.8 90.8 175.1 90.8 179.3 90.8 182.7 92.3 244.7 128.2 271.9 192.4 272.3 193.3 272.7 194.3 296.9 258.3 290.3 323.2 288.1 343.9 282.9 364.8 282.4 367.4 282.1 370 305.9 364.3 329.3 358.6 353.4 352.8 376.2 346.4 399.6 340 422.1 332.8 431.4 329.8 442.1 328.5 445.9 328 449.8 328 449.9 328 450.1 328 450.1 327.8 450.1 327.5 449.7 315.6 451.1 304.9 452.3 295.3 454.9 286.6 456.9 279.9 459.8 273.8 471.4 248.5 496.7 231.9 507.1 225.1 519.9 219.7 522.4 219 525.1 218.9 544.1 218.4 556.4 224.4 570.7 231.4 581.1 242 596.2 227.6 611.8 213.7 614.1 211.6 616.5 209.4 632 195.3 647.9 181.7 663.7 168.1 680.2 155.1 696.7 142.1 713.1 129.1 715.4 127.3 718.1 126 727.4 133.3 734.4 142.8 734.6 143 735.1 143 739.2 168.4 742.9 194.1 744.8 207.3 746.9 220.9 747.8 226.8 748 235 748.2 241.4 748.8 248.1 751.4 275.3 752.6 304 753.9 331.8 753.5 362 753.1 386.5 753.6 411 753.6 411.5 754.1 412 768.7 397.1 783.8 382.7 798.9 368.3 814.3 354.2 829.6 340.1 846.5 327.3 862.2 315.5 880.9 306.6 881.5 306.3 882.1 306 867.5 298 853.3 289.9 848.9 287.4 844.6 284.9 842.1 283.4 839.9 282.5 828.3 277.8 824.1 266 826.9 257.8 832.8 252.6 844.6 242 856.1 231 870.4 230.3 880.4 225.4 884.9 223.3 889.2 221.2 909.1 211.5 928.5 201.7 932.3 199.7 936.1 198.1 944.2 194.7 951.5 190.7 953.8 189.4 956.1 188 964.1 166.4 971.5 144.1 978.7 122.1 986.8 100.3 988.7 95.1 990.9 89.3 992.5 84.9 993 79 993.1 78 993.1 77 1008.6 63 1023.6 48.5 1024.1 48 1024.5 47.5 1027 44.9 1030.1 43 1039.9 48.8 1045.6 58.8L1075.8 147.1Q1083.2 144.7 1090.8 142.3L1112 137.3Q1115.4 136.7 1118.3 135.8 1119.2 135.6 1120 135.3 1122 134.8 1124 134.3 1124.3 134.3 1124.7 134.2L1125 134.2Q1148.3 129 1173 124.6 1173.6 124.5 1174.1 124 1164.8 123.3 1155.3 122.8 1137 121.7 1118.1 121.3 1107.6 121 1097.1 121 1091 116 1086.3 109.8 1086.1 109.5 1086.1 109 1089.3 100.9 1097 94 1104.6 87 1110.3 80.8 1116.1 74.5 1120.2 73.3 1121.1 73 1122.1 73 1128.1 73 1134.1 73 1193.3 75.7 1249.9 87.4L1260.8 89.8Q1291.8 96.7 1322 106.3 1355 116.9 1387.1 130.6L1426.2 149Q1442.8 156.2 1453.2 165M948.1 346 948.1 346Q947.9 346.4 947.7 346.8 945.7 351.2 944.4 356.1 944.1 357 943.8 357.9 935.6 379 928.1 401 928.4 401 928.6 400.9 928.9 400.8 929.1 400.7L929.7 400.1Q945.6 385.6 962 368.1 964.5 365.5 966.9 362.9 968.2 361.4 969.5 360L969.5 359.9 969.7 359.8 969 359.4Q968.9 359.3 968.8 359.1 968.7 359.1 968.6 359 965.2 356.3 961.3 353.7 957.3 350.9 952.8 348.3 952.3 348.1 951.9 347.8 951.4 347.6 950.9 347.4 950.7 347.3 950.5 347.2 949.3 346.6 948.1 346M943.1 233Q942.1 233.5 941.1 234 920.8 243.2 901.1 253 901.1 253.5 901.4 253.7 915.5 262.6 930.1 271 930.6 271 930.6 270.9 936.8 251.7 943.1 233M665.4 395.1Q664.1 382.1 660.8 370.8 659 364.7 656.5 359.8 646.6 340 634.8 322.5 622.9 304.8 606.1 292 606.6 306 603.6 316.9 602.9 319.6 602 322.4 601.4 324.4 600.6 326.4L600.1 327.9Q597.1 335.6 592.5 342.6 587.1 350.6 580.4 358.1 572.3 365.9 565.6 371 556.3 378.1 548.5 379.8 538.1 378.3 534.1 366.4 534.1 366.3 534.2 366.2 534.3 365.8 534.5 365.4L542.7 356.1Q547.9 351.3 553 344.2 560 331.3 557.5 310.9 557.1 307 556.3 303.2 555 297.6 552 293.1 546 284.1 537.5 277.8 536.8 277.1 536 276.6 535.8 276.4 535.5 276.3 529.1 271.4 522.6 268.9 519.3 267.6 515.8 267 510.1 265.9 504.3 266.7 500.9 276.4 499.5 286.4 493.8 329.2 526.1 377.4 529.4 382.6 534 389.3 538.4 395.4 542.4 399.5 542.7 399.8 543 400.1 543 400.1 543 400.1 547.4 404.3 558.3 412.8 569.1 421.3 583.6 427.3 598.1 433.2 611.8 434.4 625.4 435.7 641.1 434.6 654.9 433.8 663.1 427 667.3 413.7 665.4 395.1M694.7 212.1Q694.6 211.5 694.5 210.9 693.7 196.4 689.1 186 674.3 198.2 659.3 210.2 642.9 223.3 627.1 237 626.4 239.7 627.8 240.6 643 250.2 655.5 262.6 670.4 277.3 681.8 295.6 693 313.6 704.1 332 705.9 327.3 705.2 320 703 292.6 700.7 265.1 698.5 238.1 694.7 212.1M1028.1 333Q1042.2 343.7 1050.4 349.5 1058.6 355.2 1073.7 367.1 1088.8 378.9 1105.1 392 1102 382.1 1098.7 372.1 1097.7 369 1096.7 365.9 1089.7 342.9 1084.8 329.7 1079.9 316.5 1077.1 309.3 1074.3 302.1 1068.8 289.3 1063.2 296.1 1057.6 301.5 1057.1 302 1056.6 302.5 1042.2 317.5 1028.1 333M1060.1 260.5Q1057 251.1 1053.5 241.2 1046 219.6 1037.8 198.3 1033.2 199.4 1026 201.6 1018.7 203.7 1009.8 207.1 1000.9 210.4 990.6 215.3 985.5 230.4 981.1 246 974.7 269.1 967.1 291 967.1 292.9 968.3 293.6 970.1 294.5 971.6 295.6 988.6 307.9 1007.1 319 1018.9 305.8 1031.2 293.1 1045.8 278.1 1060.1 260.5M1017.1 132Q1016.6 132 1016.5 132.2 1011.5 149.8 1005.1 166 1005.1 167 1005.5 167.7 1006.9 169.8 1010.2 168.2 1018.4 164.3 1027.1 161 1027.1 160.5 1027 160.1 1022.1 145.9 1017.1 132M1161.1 170Q1160.3 169.3 1156.2 170.2 1152.9 170.8 1150 171.2 1142.8 172.2 1137 173.3 1111.9 178.2 1089.2 185L1088.7 184.9 1101.9 223.8 1105.9 220.1Q1107.6 218.4 1109.2 216.8 1119.2 206.9 1129.8 197.6 1145.5 183.8 1161.1 170M175.6 196.4Q177.6 201.6 179.8 206.7 188.8 226.8 197.5 247.8 206.1 268.5 216.4 287.4 226.9 306.7 233.3 316.5 239.6 326.3 240.7 328.1 241.8 329.8 243.1 332 245.5 326.9 245.6 320 245.7 298.4 242.3 279.9 237.8 254.8 230.7 232.8 223.4 210.2 211.8 192.3 200.2 174.4 184.7 160.4 181.8 157.9 178.9 155.3 169.6 148.7 168.1 148.3 168.1 148.8 168.1 149.2 166.7 161.7 169.3 175.2 170.9 183.3 173.9 191.8L175.4 196Q175.5 196.2 175.6 196.4M214.7 434.1Q215.4 433 216.1 432L216.1 432 217.3 430.3 212.2 431.8Q208 432.8 203.8 433.9 176.3 440.9 150 448.8 127.3 455.6 105.3 463.1 104.6 463.4 103.8 463.7L128.1 469.4Q131.4 470 134.9 470.8 138.6 471.7 142.4 472.7L150 474.5Q165.8 478.3 182.1 482L184.3 482.5Q199.6 459.3 214.7 434.1M257.6 445.4Q254.2 441.4 250.1 438 245.1 446.4 239.6 454.6 228.6 471.1 216.7 486.9 216.3 487.4 215.9 487.9 215.5 488.5 215.1 489 215.1 489.1 215.1 489.1 215.1 489.2 215.1 489.4L213.3 492 221.9 495.1Q223.3 495.8 225 496.3 228 497.4 231.1 498.4L257.1 507.1Q292.6 518.9 316.1 528L317.4 528.5Q321.3 530.1 325.1 531.6 329.6 533.4 334.1 535 333.9 534.9 333.9 534.7 322.8 522 312.1 509.1 298.8 492.9 284.9 477.1 271.1 461.5 257.6 445.4" fill="#000"/></svg>
