<?xml version="1.0" encoding="UTF-8"?><svg width="1700px" height="659px" viewBox="0 0 1700 659" version="1.1" xmlns="http://www.w3.org/2000/svg" xmlns:xlink="http://www.w3.org/1999/xlink"><title>solady</title>
<path d="M1694.95 12.75 1695 12.8Q1695.9 13.35 1696.75 14.2 1699.95 17.4 1700 21.9 1700.05 26.45 1700 31L1700 31.1Q1700 31.55 1700 32 1700 34.174219 1699.2 36.15 1695.066 40.21875 1690.85 47.85 1687.2656 54.298242 1683.625 63.3 1676.5582 80.702734 1669.25
 107.65L1664.925 122.975Q1663.7715 126.92441 1662.65 130.925 1663.6695 126.86426 1664.7 123 1664.392 124.04316 1664.1 125.1 1663.3307 127.95449 1662.6 130.95L1661.9 133.65Q1661.5 135.3 1661.05 137.05 1655.15 161.05 1649.25 190.45 1645.7 204.95
 1642.4 219.7 1641.8443 222.20078 1641.3 224.7 1641.1691 225.3502 1641.05 226 1641.7484 222.82637 1642.45 219.675 1641.9631 222.6084 1631 279.025 1620.0314 335.44141 1608.475 437.95 1596.9244 540.46094 1595.225 563.475 1593.5211 586.48086 1593.25
 587.075 1592.9805 587.67891 1592.925 588.25 1592.5082 591.7625 1592.1 595.3 1591.9369 596.71367 1591.775 598.125 1591.6699 598.31797 1591.55 598.5 1591.2402 599.0248 1590.875 599.525 1590.3654 600.18457 1589.75 600.8 1589.5 601.05 1589.25 601.3
 1589.2 601.3 1589.2 601.35 1583.5697 609.44844 1576.9 616.5 1566.251 627.72969 1552.95 636.3 1550.2 638 1547 638 1543.85 638 1541.35 636.7L1541.2 636.65Q1541.1 636.6 1541.05 636.6 1533.6 632.7 1526.85 628.15 1524.7 626.65 1523.45 624.4 1522.15
 622.15 1522.05 619.55 1520.901 597.75547 1525.875 546.175 1530.8467 494.58359 1541.7 418.275 1552.5543 341.97188 1564.9 267.6 1544.6 257.55 1529.65 242.25 1503 215.1 1477.75 186.55 1480.1 195.1 1479.3 205.75L1479.3 205.8Q1479.3 205.85 1479.3
 205.9 1477.3 229 1466.95 244.8 1431.1 300.35 1383.75 344.4 1337.2 387.6 1289.45 429.55 1289.35 429.65 1289.25 429.7 1273.9 443.2 1255.4 453.65 1252.85 455 1249.95 455 1247.05 455 1244.5 453.55 1231.5 446 1221.95 435.05 1221.85 434.95 1221.8
 434.8 1219 431.9 1219 427 1219 425.1 1219.7 423.35L1219.65 423.4Q1237.4 372.95 1241 303.5L1241 303.45Q1241 303.25 1241 303 1241 302.8 1241 302.6L1241.05 276.05Q1241 275.8 1241 275.55 1241 275.5 1241 275.45 1241 275.2 1241 275 1241 274.6 1241
 274.25 1239.8 218.85 1228.85 173.45 1223.5 177.4 1217.75 180.95 1166.8 212.2 1123.85 252.05 1145.75 310.75 1165.3 371.7 1170.7 388.55 1177.1 405.4 1186.35 429.7 1191.85 459.05 1192 460 1192 461 1192 465.3 1189.7 468.3 1173.45 490.85 1148.3
 504.7 1145.35 506.2 1142.15 506 1138.85 505.7 1136.3 503.7 1109.5 482.95 1084.45 460.5 1041.15 421.85 992.65 388.5 973.1 409.6 952.5 429.7 942.85 439.15 935.65 450.65 917 480.4 889.6 500.85 886.6 503 883 503 879 503 876.2 501.05 863.5 492.95
 857 478.6L857 478.55Q856.05 476.45 856 474.3 855.75 463.6 858.2 455.75L858.2 455.8Q876 396.4 895.2 338.65 888.3 347.4 881 355.8 871.65 366.55 859.95 374.65 808.15 410.15 769.35 458.5 748.35 484.55 721.65 504.8 718.7 507 715 507 710.75 507 707.8
 504.75 707.75 504.75 707.75 504.7 707.7 504.7 707.65 504.65 698.4 497.85 690.3 489.85 687 486.55 687 482 687 480 687.55 478.2 690.5 467.1 692 455.2 665.2 487.65 614.75 495.9 613.85 496 613 496 612.5 496 612 496 605.5 496 599 496 598.45 496
 597.9 495.95 558.35 491.95 531.6 475.7 531.45 475.6 531.35 475.5 478.3 443.55 453.95 383.3 453.05 383.6 452.1 383.85 411.45 391.65 373.75 401.95L373.7 401.95Q346.85 409.2 321.05 417.25 331.8 428.7 342.5 440.45 385.75 487.95 420.05 545 430.45
 562.1 430 585.25 429.9 589.65 426.7 592.85L426.7 592.9Q426.1 593.4 425.55 593.85L425.5 593.9Q410.35 611.95 389.75 624.4 387.5 625.7 384.95 625.95 382.35 626.15 380 625.25 344.5 611.4 310.45 596.45 251.1 570.5 189.15 551.7 172.1 573.55 153.5
 593.9 143.85 604.35 134.05 614.6 112.3 637.3 85 654.4 84.45 655.1 83.85 655.8 83.8 655.8 83.8 655.85 82.59707 657.01582 81.225 657.75 78.866016 659 76 659 75.5 659 75 659 74 659 73 659 70.15625 659 67.85 657.75 66.45 657 65.25 655.8 55.5 649.95
 51.6 638.6 50.75 635.95 51.2 633.25L51.15 633.25Q51.55 630.55 53.25 628.35 77.05 597.1 106.4 571.35 124 555.85 136.65 535.5 114.3 529.2 88.75 526.35 54.6 522.45 19.6 520 14 519.9 11.4 516.45 7 512 2.85 507.45 0 504.25 0 500 0 499.5 0 499 0
 496.5 0 494 0 490.6 2 487.75 40.65 432.15 109.65 407.5 151.65 392.45 195.5 379.65 163.7 331.4 136.7 278.25 115.15 236.1 108.55 180.2 106.05 159.55 108.15 142.6 108.15 142.5 108.2 142.45 108.95 135.5 110.4 130.2 110.85 128.35 112.05 126.7 131.65
 98.6 162.75 82.6 162.85 82.55 163 82.55 167.8 80 174 80 177.5 80 181 80 183.8 80 186.35 81.4 247.1 114.95 276.95 178.85 288.15 202.7 296.4 230.35 306.05 262.7 302.95 302.75 301.55 320.95 298.5 338.85 297.05 347.2 295.65 355.7 359.95 340.9 419.85
 322.05 428.85 319.15 439.3 317.85 442.6 255.7 481.85 228.9 489.45 223.45 497.35 218.35L497.35 218.4Q522.6 201.45 555.4 213.15 555.5 213.15 555.6 213.2 569.8 218.4 580.85 227.1 623.6 186.95 669.3 149.7 689.9 132.9 711.5 117.15 714.55 114.95
 718.3 115 721.95 115.1 724.9 117.45 734.2 124.85 741.65 134.3 741.8 134.4 742.05 134.6 745.05 137.1 745.85 141L745.85 141.05Q759.9 217.25 763.95 304.45 764.7 320.7 764 339.4L764 339.45Q764 344.75 764 350 764 350.5 764 351 764 368.4 764 385.8
 801.2 350.2 841.8 318.15 849.9 311.7 858.8 306.1 840.4 295.25 823.35 283.05 817.35 278.85 814.05 271.65 812.95 269.3 813 266.8 813.05 264.25 814.2 262 826 239.05 846.65 224.85 848.9 222.25 852.25 221.4 892.85 210.9 925.1 192.55 925.15 192.5
 925.2 192.5 935.65 186.55 946.3 181.15 965.9 130 982.1 75.65 982.25 74.1 982.95 72.6 983.85 70.5 985.6 68.95 1003.45 52.4 1021.3 35.7 1021.375 35.625 1021.45 35.55 1021.55 35.4 1021.65 35.3 1024.35 32 1030 32 1033.9 32 1037 34.55 1060.05 53.35
 1069.7 86.4 1069.7 86.45 1069.75 86.6 1072.3 95.4 1075.4 104.2 1075.85 102.3 1077 100.7 1091 80.75 1110.4 66.15 1110.8 65.6 1111.35 65.15 1114.5852 61.950391 1119.1 62 1209.45 62.75 1280.25 82.5 1325.1 94.9 1366.55 110.75 1366.65 110.75 1366.75
 110.85 1399 123.1 1430 136.4 1430.15 136.45 1430.25 136.55 1435.25 138.65 1439.85 141.25 1412.2 106.15 1387.75 67.95L1387.8 67.95Q1385.7 64.75 1386.05 61.05 1386.4 57.2 1389.05 54.45L1389.05 54.5Q1405.65 36.8 1422.2 18.85L1422.2 18.8Q1422.3
 18.7 1422.4 18.6 1425.1 15 1431 15 1432 15 1432.95 15.2 1435 15.55 1436.9 16.7 1437.25 16.95 1437.65 17.2 1440.4 18.95 1463.45 32.6 1486.4 46.15 1512.95 55 1513 55 1513.05 55.05 1515.45 55.65 1517.65 56.05 1523.7 57.05 1527.85 56.25 1528 56.2
 1528.25 56.25 1528.95 56.4 1529.7 56.65 1533.2 57.9 1536.3 59.7 1544.2 64.3 1548.85 72.35 1551.4 74.85 1551.9 78.55 1552.45 82.5 1550.25 86 1538.45 104 1523 118.25 1549.8 151.85 1581 181.25 1594.9 115.5 1617.7 58.3 1617.7 58.15 1617.8 58.1
 1620.3 51.55 1622.45 44.05 1623.25 41 1625.6 38.9L1625.6 38.95Q1644.1 21.9 1662.75 5.05 1663.4 4.05 1664.3 3.25L1664.25 3.25Q1667.4 0 1672 0 1672.5 0 1673 0 1673.5 0 1674 0 1676.4 0 1678.65 1.05 1680.2469 1.7857422 1681.775 2.6 1689.3287 6.6705078
 1694.95 12.75M1302.75 167.35Q1309.85 205.55 1311.45 249.65 1313.1 294.9 1306.45 336.5 1305.5 342.3 1304.75 347.95 1346.85 312.05 1382.9 270.05 1383 269.95 1383.1 269.9 1385.05 267.6 1387.05 265.4L1399.55 248.65Q1407.2 233.35 1407.3 217.55L1406.55
 215.25Q1404.95 213.85 1403.2 212.75L1403.25 212.75Q1368.8 190.9 1329.1 174.65 1316.45 169.5 1302.75 167.35M1017.95 160.7 1017.65 160.75 1018 160.95Q1017.95 160.75 1017.95 160.7M1088.25 128.8Q1087.85 128.4 1087.55 128.05 1084.6 125.85 1082.3
 123.05 1083.95 127.7 1085.55 132.4 1088.6 131.8 1091.7 131.15 1089.8 130.35 1088.25 128.8M1102.85 192.45Q1104.85 198.15 1107 203.8 1116.05 195.35 1125.2 186.95 1113.7 189.35 1102.85 192.45M1030.65 211.8Q1013.75 216.4 999.7 223.85 990.15 255.8
 979.55 286.4 990.85 297.05 1004.5 305.45 1026.4 283.1 1046.35 258.9 1039.9 234.05 1030.65 211.8M1064.8 309.85Q1054.8 320.85 1044.35 331.35 1064.15 346.9 1084.25 362.25 1075.5 335.05 1064.8 309.85M682.95 205Q662.65 221.8 642.25 238.65 643.5
 239.8 644.85 240.9 644.95 240.95 645.05 241.1 671.35 262.55 691.55 290.2 689.7 255.5 685.9 221.1 684.95 212.4 682.95 205M652.75 391.8Q642.4 345.3 614.95 315.35 613.94277 320.72949 612.475 325.65 607.55625 338.46367 600.525 349.7 593.33574 361.22949
 583.925 371.1 581.2123 373.95977 573.3 379.75 565.38262 385.54668 549.3 389.6 556.85 397.4 565.7 403.95 583.2 416.75 607.5 421.75 635.15 427.3 653.55 419.45 656 406.7 652.8 391.9 652.75 391.85 652.75 391.8M924.25 255.05Q924.45 254.4 924.65
 253.75 923.9 254.1 923.2 254.45 923.7 254.75 924.25 255.05M509.95 283.95Q508.85 310.65 514.9 329.85 514.95 329.95 514.95 330.05 519.65 344.95 526.5 357.8 527.9 355.7 529.8 354 537.2 347.25 542.45 338.8 542.45 338.7 542.55 338.6 548.7 327.95
 545.55 312.4 540.15 286.4 516.95 277.95 514.35 277.3 511.5 277.9 510.2 281.2 509.95 283.95M182.1 181.75Q186.4 196.25 191.5 209.55 191.55 209.6 191.6 209.7 209.3 255.75 233.3 295 232.1 276.45 228.15 259.35 215.1 204.05 179.9 171.4 180.65 176.7
 182.05 181.55 182.05 181.65 182.1 181.75M192.4 448.8Q167.65 454.9 143.85 462 160.8 465.95 178 469.7 185.35 459.4 192.4 448.8M298.75 510.35Q275.35 483.15 251.55 456.35 241.35 471.85 230.45 486.75 237.4 490.4 245.8 493.05 261.05 497.8 277.9 503.35
 288.5 506.85 298.75 510.35" fill="#fff"/>
<path d="M1673.1 11Q1683.05 14.6 1688.85 22.2 1689.1 22.5 1689.1 23 1690.2822 32.694141 1686.15 37.1 1680.8266 44.888477 1675.95 55.45 1671.0691 66.004688 1661.7 94.175 1652.3338 122.34922 1634.6 202.95 1599.3617 391.91387 1590.875 489.875 1582.3938
 587.83008 1582.1 592.2L1581.9 593.25Q1581.3156 593.96523 1580.725 594.675 1568.0736 609.99297 1553.75 623.7 1552.25 625.15 1550.25 626.3 1549.3047 626.81211 1547.9 626.95 1544.3408 625.81113 1541.5 624.275 1538.524 622.52051 1536.025 620.325
 1534.3023 618.66855 1533.075 616.725 1533.0609 615.99551 1533.05 615.275 1533.0428 614.85645 1533.025 614.45 1538.1881 529.87129 1551.85 428.3L1551.9 427.9Q1559.7977 369.24199 1570.6 304.925L1573.2 289.05 1576.675 260.825Q1556.593 251.74473
 1541.9 237.2 1527.1 222.5 1512.6 207.5 1498.1 192.5 1484.9 176.15 1471.75 159.85 1458.3 143.85 1444.85 127.75 1431.6 111.6 1431.1 111 1430.6 110.4 1417.65 93.95 1405.7 76.3 1405.15 75.5 1404.5 74.7 1400.75 69.85 1397.55 64.7 1397.1 64 1397.1
 63 1410.1 46.5 1425.55 32.5 1428.7 29.65 1431.1 26 1431.15 26 1431.25 26.05 1432.45 26.55 1433.65 27.1L1434.6 27.5Q1443.05 32.85 1450.9 37.5 1461.4 43.7 1470.9 48.6 1493.6 60.4 1510.3 64.65 1518.95 66.8 1526 67 1526.05 67 1526.1 67 1527.8 67.65
 1529.4 68.5 1537 72.45 1540.9 80.1 1541.1 80.5 1541.1 81 1535.95 90.8 1527.7 97.7 1522.6 102 1517.8 106.65 1512.95 111.35 1508.1 116 1520.8 132.8 1534.4 148.6 1541.4 156.7 1548.8 164.35 1559.55 175.55 1570.45 186.6 1575.7 191.9 1581.25 196.8
 1584.25 199.4 1587.1 202 1589.85 200.75 1590.4 197.05 1592.35 184.25 1595.05 172 1600.4 147.8 1606.65 124.15 1612.75 101.15 1620.75 79.85 1626.85 63.75 1633.35 48.1 1633.6 47.5 1634.1 47 1649.1 32.5 1664.4 18.3 1668.55 14.45 1673.1 11M948.1
 346 948.1 346.025Q947.90977 346.4248 947.725 346.825 945.72051 351.20742 944.35 356.05 944.1 357 943.75 357.85 935.6 379 928.1 401 928.35625 400.98027 928.65 400.9 928.88184 400.82988 929.125 400.725L929.7 400.15Q945.65 385.6 962 368.15 964.45
 365.5 966.9 362.85 968.2 361.4 969.5 360L969.55 359.95 969.7 359.75 969.05 359.35Q968.9 359.25 968.8 359.15 968.70488 359.07383 968.6 359 965.16875 356.26387 961.325 353.675 957.26738 350.91855 952.75 348.325 952.29629 348.07656 951.85 347.825
 951.38086 347.58867 950.9 347.35 950.72207 347.2625 950.55 347.175 949.32813 346.58008 948.1 346M943.1 233Q942.15 233.5 941.1 234 920.8 243.2 901.1 253 901.1 253.5 901.35 253.65 915.45 262.65 930.1 271 930.6 271 930.65 270.85 936.8 251.7 943.1
 233M665.4 395.05Q664.1 382.05 660.75 370.8 658.95 364.7 656.5 359.8 646.6 340 634.8 322.5 622.85 304.75 606.1 292 606.6 306 603.6 316.85 602.85 319.65 602 322.4 601.35 324.45 600.65 326.45L600.15 327.85Q597.15 335.55 592.45 342.65 587.15 350.65
 580.4 358.1 572.25 365.85 565.6 371 556.25 378.15 548.45 379.75 538.15 378.25 534.15 366.4 534.15 366.3 534.2 366.2 534.3 365.8 534.5 365.45L542.7 356.05Q547.85 351.3 553.05 344.2 560 331.3 557.55 310.95 557.1 307 556.25 303.2 555 297.65 552
 293.05 546.05 284.05 537.55 277.75 536.8 277.15 536 276.65 535.75 276.45 535.55 276.3 529.15 271.4 522.65 268.95 519.25 267.65 515.8 267 510.05 265.95 504.25 266.7 500.85 276.4 499.5 286.4 493.75 329.2 526.1 377.4 529.35 382.65 534.05 389.3
 538.35039 395.4498 542.4 399.5 542.70176 399.81113 543 400.1 543.02031 400.12148 543.05 400.15 547.39473 404.29473 558.25 412.8 569.11582 421.31582 583.6 427.25 598.08418 433.18418 611.75 434.45 625.40527 435.70527 641.1 434.65 654.85 433.75
 663.1 427 667.3 413.7 665.4 395.05M694.7 212.05Q694.6 211.5 694.55 210.95 693.7 196.4 689.1 186 674.25 198.15 659.25 210.2 642.9 223.3 627.1 237 626.4 239.7 627.75 240.55 642.95 250.15 655.5 262.6 670.35 277.25 681.8 295.55 693.05 313.6 704.1
 332 705.85 327.25 705.2 320 702.95 292.65 700.7 265.05 698.5 238.1 694.7 212.05M1028.1 333Q1042.1629 343.70781 1050.375 349.475 1058.5902 355.24414 1073.675 367.05 1088.7531 378.85195 1105.1 392 1101.95 382.15 1098.65 372.15 1097.65 369 1096.65
 365.85 1089.7016 342.89863 1084.8 329.675 1079.8951 316.45352 1077.075 309.275 1074.2564 302.09512 1068.85 289.25 1063.2 296.1 1057.6 301.5 1057.1 302 1056.6 302.5 1042.15 317.5 1028.1 333M1060.1 260.5Q1057 251.1 1053.55 241.2 1046.05 219.55
 1037.85 198.25 1033.24 199.39883 1025.95 201.575 1018.6588 203.74375 1009.775 207.05 1000.8965 210.36797 990.6 215.25 985.55 230.45 981.15 246 974.7 269.1 967.1 291 967.15 292.95 968.3 293.6 970.1 294.5 971.65 295.6 988.65 307.95 1007.1 319
 1018.9 305.8 1031.2 293.1 1045.8 278.15 1060.1 260.5M1017.1 132Q1016.6 132 1016.55 132.15 1011.45 149.85 1005.1 166 1005.1 167 1005.55 167.7 1006.85 169.75 1010.2 168.15 1018.4 164.3 1027.1 161 1027.1 160.5 1026.95 160.05 1022.15 145.95 1017.1
 132M1150 171.2Q1142.8 172.2 1136.95 173.35 1111.8838 178.24336 1089.15 184.975L1088.65 184.875 1101.925 223.75 1105.925 220.1Q1107.5711 218.4334 1109.225 216.775 1119.1908 206.90117 1129.75 197.6 1145.45 183.85 1161.1 170 1160.3 169.3 1156.15
 170.15 1152.9 170.8 1150 171.2M1343.75 169.85Q1322.45 161.15 1299.95 154.45 1292.3 152.2 1289.1 156 1290.3 160.3 1291.2 165 1295.8 189.8 1298.8 216.05 1300.4 229.75 1300.35 245 1300.35 248.75 1300.5 252 1301.55 281.95 1299.95 310 1298.35 337.75
 1292.05 361 1290.15 368.05 1291.1 373 1302.1 363 1313.55 353.35 1321.7 346.55 1329.6 339.6 1345.35 325.75 1360.45 311.35 1375.55 296.95 1388.7 280.7 1401.9 264.3 1413.45 246.2 1416.3 241.7 1417.9 235.95 1419.1 231.5 1419.4 226.95 1419.95 218.95
 1418.45 212.35L1417.05 209.7Q1408.7 199.7 1396.45 193.35 1390.7 190.4 1384.8 187.65 1364.4 178.2 1343.75 169.85M1460.45 171.7Q1465.9 177.2 1467.55 186.1 1468.1 189 1468.65 191.9 1471 204.55 1467.15 217.7 1463.9 228.8 1458.55 238.25 1447.8 257.2
 1434.55 273.35 1421.2 289.6 1406.8 304.7 1392.4 319.8 1377.8 334.7 1370.35 342.25 1362.65 349.6 1347.55 363.95 1331.6 377.55 1315.7 391.05 1299.6 404.6 1295.6 407.95 1291.65 411.6 1276.45 425.85 1259.95 438.85 1255.75 442.15 1250.1 444 1249.6
 444 1249.25 443.8 1237.6 436.5 1229.1 426 1235 409.4 1240.2 392.05 1241.1 389 1241.8 385.95 1247.45 361.85 1250.4 335.9 1252.7 315.6 1252.8 293 1253 262.6 1250.2 236 1247.45 209.15 1242.75 184.05 1241.65 178 1240.8 171.9 1239.4 161.65 1236.1
 154 1224.45 163.35 1210.9 170.6 1210.1 171 1209.4 171.45 1192 183.4 1174.75 195.5 1157.35 207.75 1141.6 221.55 1126.0279 235.28145 1111.25 249.85L1111.2 249.85 1111 250.3 1180.625 454.125Q1181.0678 457.83906 1181.1 462 1173.0939 470.5 1167.8
 475.425 1162.5178 480.34961 1157.45 485.375 1152.3762 490.40039 1144.1 495 1140.55 494.1 1138.15 491.95 1122.65 478 1106.6 464.4 1102.65 461 1098.6 457.65 1082.45 444.15 1066.5 430.55 1051.1 417.5 1035.1 404.95 1030.95 401.7 1026.6 398.35 1013.1004
 388.05293 998.8 378.45 998.77695 378.43477 998.75 378.425 998.66465 378.36016 998.575 378.3 997.44453 377.53633 996.325 376.775L994.675 375.7Q993.39883 374.84766 992.1 374L992.05 374.025Q992.01133 374.05547 991.975 374.075 991.90879 374.12051
 991.85 374.175 991.77109 374.22031 991.7 374.275 990.44492 375.1752 989.45 376.3 975.55 391.95 960.55 406.5 945.6 421 931.5 436.35 924.3 444.2 919.75 454.3 917.3 459.7 913.5 463.4 898.65 478.05 883.1 492 873.9 486.7 868.7 477.2 866.3 472.8
 867.7 465.1 871.6 444 878.3 425.1 879.45 421.85 880.5 418.8 888.1 396.5 895.7 374.2 903.05 352.45 910.95 330.95 912.1252 327.73379 912.275 325.45 912.36621 324.30137 912.2 323.4 905.0498 319.04609 898.575 315.15 898.33711 315.07598 898.1 315
 898.22363 316.05078 898.225 316.975 898.23633 320.56367 896.45 322.35 894 324.85 891.45 327.35 876.45 341.85 863.05 357.95 862.6 358.5 862.35 359.1 861.2 362.1 858.8 363.55 853.1 367 847.5 370.6 832.05 380.45 818.4 392.35 802.65 406.05 788
 420.9 773.35 435.75 759.6 451.55 756.1 455.5 752.65 459.5 738.9 475.3 724.5 490.35 720.8 494.2 715.1 496 714.6 496 714.25 495.75 704.9 489.7 698.1 481 703.35 458.75 705.25 433 705.85 424.75 704.1 419 700.6 426 697.45 429.85 694.3 433.7 689.2
 440.35 684.05 446.95 670.5 460.15 656.9 473.3 634.9 480.4 633.1 481 631.4 481.7 629.53184 482.47988 627.475 483.1 618.20078 485.89668 604.925 485.25 591.64531 484.5916 579.075 481.575 566.50957 478.56758 559.375 475.525 552.23125 472.47578
 544.925 468.95 537.61934 465.41426 525.425 457.35 519.81055 453.6457 514.6 449.6 497.95 436.65 486.55 418.7 486.4832 418.59453 486.425 418.5 476.6127 404.83125 468.7 388.5 468.62793 388.36348 468.55 388.225 462.33477 376.4041 461 372.4 459.6
 368.35 458.1 365 458.1 365.5 457.85 365.75 454.05 369.45 450.1 373 427.15 376.55 406.25 382.5 394.85 385.75 383.1 388.95 359.9 395.3 336.25 401.55 330.6 403 324.95 404.15 311.9 406.8 301.1 411 310.2 421.4 319.2 431.9 332.8 447.8 346.65 463.4
 360.5 479.1 373.15 496 385.75 512.85 397.6 530.35 409.55 548.1 417.9 569.1 420.5 575.6 419.1 581 419.8 583.7 418.7 584.65 406.1 596.5 394.4 609.25 390.8 613.2 385.1 615 382.75 615.25 381.05 614.9 380.65 614.8 380.35 614.7 379.85 614.55 379.45
 614.35L379.4 614.3Q364.4 607.35 349.3 600.7 330.45 592.4 311.4 584.55 277.15 570.45 242.2 557.7 226.2 551.9 210.05 546.35 197.65 542.1 185.2 538.05 185.15 538 185.1 538 177.75 548.15 170.2 558.05 157.4 574.8 142.65 589.55 127.95 604.35 112.3
 618.2 104.1 625.5 96.55 633.45 87.55 642.95 74.1 648 72.1 647.5 71 646.05 70.6 645.5 70 645.15 64.25 641.85 62.1 635 63.05 631.35 64.95 628.7 65.3 628.2 65.7 627.7 68.45 624.35 71.4 621.3 85.55 608 97.35 596.25 142.85 550.8 153 528 152.3 527.85
 151.6 527.75 141.65 525.1 131.6 522.85 91.3 513.85 49.3 511.5 38.8 510.9 28.15 510.75 24.55 510.45 21.1 510 20.65 510 20.45 509.8 20.4 509.8 20.35 509.75 16.1 505.5 12.1 501 12.1 500.5 11.85 500.15 10.75 498.35 11.1 495 11.75 494 12.45 493.05
L26.55 475.25Q36.4 465.2 46.6 455.45 48.1 454 49.65 452.7 65.85 439.25 85 428.8 94.65 423.55 105.95 419.55 127.6 412 149.4 404.95 161.2 401.1 172.95 397.55 192.3 391.7 213.1 387 201.4 369.2 190.3 350.9 179.1 332.5 168.75 313.65 160.7 298.9 153
 284.05 142.95 264.65 134.65 243.8 126.15 222.45 120.85 198.85 118.00039 186.09941 117.875 168.725 117.74824 151.35176 121.1 133 134.6 117 149.45 102.35 151.45 100.35 153.45 98.35 160.85 90.75 175.1 90.85 179.3 90.85 182.65 92.3 244.7 128.15
 271.9 192.4 272.3 193.35 272.7 194.3 296.95 258.3 290.3 323.2 288.15 343.9 282.85 364.75 282.45 367.35 282.1 370 305.85 364.25 329.25 358.6 353.35 352.75 376.2 346.45 399.6 340 422.05 332.8 431.4 329.8 442.15 328.5 445.9 328 449.75 328 449.9
 328 450.1 328 450.1 327.75 450.1 327.5 449.7 315.6 451.05 304.85 452.3 295.3 454.9 286.65 456.9 279.9 459.75 273.75 471.35 248.5 496.7 231.9 507.1 225.05 519.85 219.7 522.35 219 525.1 218.95 544.15 218.45 556.4 224.4 570.7 231.4 581.1 242 596.2
 227.6 611.75 213.7 614.15 211.55 616.5 209.4 631.95 195.35 647.85 181.7 663.7 168.1 680.2 155.1 696.7 142.1 713.15 129.05 715.35 127.25 718.1 126 727.35 133.3 734.4 142.75 734.6 143 735.1 143 739.2 168.45 742.9 194.05 744.8 207.3 746.9 220.9
 747.8 226.85 748 235 748.2 241.45 748.8 248.05 751.35 275.25 752.6 304 753.85 331.75 753.45 362 753.1 386.5 753.6 411 753.6 411.5 754.1 412 768.7 397.1 783.8 382.7 798.9 368.3 814.25 354.2 829.65 340.05 846.55 327.3 862.21406 315.46719 880.925
 306.55 881.51621 306.27383 882.1 306 867.47305 298.03555 853.25 289.875 848.90918 287.36758 844.6 284.85 842.15 283.4 839.9 282.5 828.3 277.8 824.1 266 826.9 257.8 832.75 252.6 844.6 242 856.1 231 870.4 230.3 880.35 225.45 884.85 223.25 889.2
 221.15 909.1 211.5 928.45 201.7 932.3 199.7 936.15 198.1 944.16777 194.73398 951.475 190.675 953.82227 189.37637 956.1 188 964.1 166.45 971.45 144.1 978.7 122.1 986.8 100.25 988.7 95.1 990.85 89.3 992.45 84.9 993 79 993.1 78 993.1 77 1008.6
 63 1023.6 48.5 1024.1 48 1024.55 47.5 1027 44.85 1030.1 43 1039.882 48.75625 1045.575 58.75L1075.75 147.1Q1083.1854 144.72813 1090.825 142.325L1112 137.25Q1115.4 136.7 1118.35 135.8 1119.2 135.55 1120.05 135.35 1121.95 134.8 1123.95 134.35
 1124.3 134.25 1124.65 134.2L1124.95 134.15Q1148.25 129 1173.05 124.6 1173.6 124.5 1174.1 124 1164.7738 123.30352 1155.325 122.775 1136.95 121.71211 1118.1 121.25 1107.6 121 1097.1 121 1091 116.05 1086.35 109.8 1086.1 109.5 1086.1 109 1089.3
 100.9 1096.95 93.95 1104.6 87 1110.35 80.75 1116.1 74.45 1120.2 73.25 1121.1 73 1122.1 73 1131.1 73 1140.1 73 1140.6 73 1141.1 73 1155.1 73.5 1169.1 74.4 1182.35 75.25 1195.1 77.15 1204.5 78.6 1214.05 80.35 1220.15 81.5 1226.15 82.65 1235.7
 84.4 1245.05 86.35 1256.1264 88.610938 1266.875 91.325 1279.6455 94.56582 1291.95 98.45 1297.45 100.2 1303.2 101.55 1318.5 105.1 1332.3 109.3 1355.3 116.35 1376.25 124.65 1377.1 125 1377.7 125.5 1379.3 126.8 1381.25 127.65 1401.95 136.65 1422.15
 145.9 1436.55 152.55 1448.7 161.5 1454.95 166.15 1460.45 171.7M173.875 191.85 175.425 195.975Q175.49668 196.17441 175.575 196.375 177.60723 201.56777 179.85 206.65 188.8 226.8 197.5 247.85 206.1 268.5 216.4 287.4 226.90547 306.70371 233.25
 316.525 239.58301 326.33828 240.675 328.075 241.77246 329.81543 243.1 332 245.5 326.9 245.55 320 245.7 298.4 242.35 279.95 237.75 254.85 230.7 232.8 223.45 210.15 211.75 192.25 200.15 174.45 184.7 160.45 181.825 157.8666 178.925 155.325 169.5916
 148.74434 168.1 148.325 168.1002 148.76563 168.1 149.2 166.72832 161.66563 169.35 175.225 170.90762 183.33613 173.875 191.85M217.25 430.25 212.2 431.75Q208 432.8 203.85 433.85 176.35 440.9 150 448.8 127.25 455.6 105.3 463.1 104.2 463.55 103.1
 464 106.45 465.2 110.15 465.7 112.6 466 114.9 466.65 120 468.1 126.1 469.05 130.4 469.7 134.9 470.8 158.05 476.55 182.1 482 187.85 475.25 192.7 467.75 204.35 449.75 216.1 432L216.05 432 217.25 430.25M257.6 445.4Q254.2 441.4 250.1 438 245.05
 446.45 239.55 454.65 228.6 471.15 216.7 486.9 215.9 487.95 215.1 489 215.05 489.15 215.05 489.35L213.25 492 221.9 495.1Q223.35 495.75 225 496.3 228 497.35 231.05 498.35L257.05 507.05Q292.65 518.9 316.15 528.05L317.45 528.55Q321.25 530.1 325.1
 531.6 329.6 533.35 334.1 535 333.95 534.85 333.85 534.7 322.75 522.05 312.05 509.05 298.75 492.85 284.9 477.15 271.1 461.5 257.6 445.4" fill="#000"/></svg>
